# xmcd
#
# Track frame offsets: 
#        150
#        12604
#        27950
#        44013
#        59020
#        72013
#        85417
#        96782
#        115831
#        140483
#        159955
#
# Disc length: 2466 seconds
#
# Revision: 5
# Processed by: cddbd v1.5.2PL0 Copyright (c) Steve Scherf et al.
# Submitted via: ExactAudioCopy v0.95b4
#
DISCID=9609a00b
DTITLE=Various Artist - Slatanic Slaughter - A Tribute to Slayer [Vol. 1]
DYEAR=1995
DGENRE=Thrash Metal
TTITLE0=Dissection - Anti Christ
TTITLE1=Hypocrisy - Black Magic
TTITLE2=Merciless - Crionics
TTITLE3=At The Gates - Captor Of Sin
TTITLE4=Invocator - Altar Of Sacrifice
TTITLE5=Enslaved - Jesus Saves
TTITLE6=Edge Of Sanity - Criminally Insane
TTITLE7=Seance - Post Mortem
TTITLE8=Cemetary - South Of Heaven
TTITLE9=Crown Of Thorns - Mandatory Suicide
TTITLE10=Grope - Spill The Blood
EXTD=
EXTT0=
EXTT1=
EXTT2=
EXTT3=
EXTT4=
EXTT5=
EXTT6=
EXTT7=
EXTT8=
EXTT9=
EXTT10=
PLAYORDER=
